{
  "accessors": [
    {
      "bufferView": 3,
      "componentType": 5126,
      "count": 6000,
      "max": [
        15.527819633483887,
        76.50870513916016,
        4.491616249084473
      ],
      "min": [
        -26.963254928588867,
        13.876750946044922,
        -1.8864136934280396
      ],
      "type": "VEC3"
    },
    {
      "bufferView": 3,
      "byteOffset": 72000,
      "componentType": 5126,
      "count": 6000,
      "max": [
        0.9999971985816956,
        0.9999995827674866,
        1.0
      ],
      "min": [
        -1.0,
        -1.0,
        -1.0
      ],
      "type": "VEC3"
    },
    {
      "bufferView": 2,
      "componentType": 5126,
      "count": 6000,
      "max": [
        0.9935418963432312,
        0.9973031878471375
      ],
      "min": [
        0.0020708534866571426,
        0.0020125340670347214
      ],
      "type": "VEC2"
    },
    {
      "bufferView": 1,
      "componentType": 5125,
      "count": 16992,
      "type": "SCALAR"
    },
    {
      "bufferView": 3,
      "byteOffset": 144000,
      "componentType": 5126,
      "count": 9,
      "max": [
        5.796489715576172,
        81.44672393798828,
        0.8648707866668701
      ],
      "min": [
        -28.834001541137695,
        23.923057556152344,
        0.8648325800895691
      ],
      "type": "VEC3"
    },
    {
      "bufferView": 3,
      "byteOffset": 144108,
      "componentType": 5126,
      "count": 9,
      "max": [
        1.3083589465168188e-06,
        -6.767994165102209e-08,
        1.0
      ],
      "min": [
        3.050321595310379e-08,
        -1.0008534445660189e-06,
        1.0
      ],
      "type": "VEC3"
    },
    {
      "bufferView": 2,
      "byteOffset": 48000,
      "componentType": 5126,
      "count": 9,
      "max": [
        0.767493724822998,
        0.6018450260162354
      ],
      "min": [
        0.43870827555656433,
        0.1901133805513382
      ],
      "type": "VEC2"
    },
    {
      "bufferView": 1,
      "byteOffset": 67968,
      "componentType": 5125,
      "count": 21,
      "type": "SCALAR"
    },
    {
      "bufferView": 3,
      "byteOffset": 144216,
      "componentType": 5126,
      "count": 42,
      "max": [
        72.9372787475586,
        52.807464599609375,
        194.1415252685547
      ],
      "min": [
        -69.57099151611328,
        45.16787338256836,
        -197.9078369140625
      ],
      "type": "VEC3"
    },
    {
      "bufferView": 3,
      "byteOffset": 144720,
      "componentType": 5126,
      "count": 42,
      "max": [
        0.006461943965405226,
        1.0,
        0.01807689294219017
      ],
      "min": [
        -0.006660937797278166,
        0.999836266040802,
        -0.018014242872595787
      ],
      "type": "VEC3"
    },
    {
      "bufferView": 2,
      "byteOffset": 48072,
      "componentType": 5126,
      "count": 42,
      "max": [
        0.9919146299362183,
        0.6291504502296448
      ],
      "min": [
        0.0086233951151371,
        0.05610204115509987
      ],
      "type": "VEC2"
    },
    {
      "bufferView": 1,
      "byteOffset": 68052,
      "componentType": 5125,
      "count": 117,
      "type": "SCALAR"
    },
    {
      "bufferView": 3,
      "byteOffset": 145224,
      "componentType": 5126,
      "count": 261,
      "max": [
        128.75172424316406,
        71.08492279052734,
        99.52543640136719
      ],
      "min": [
        -117.81576538085938,
        -43.090579986572266,
        -33.93172073364258
      ],
      "type": "VEC3"
    },
    {
      "bufferView": 3,
      "byteOffset": 148356,
      "componentType": 5126,
      "count": 261,
      "max": [
        1.0,
        0.9959186911582947,
        1.0
      ],
      "min": [
        -1.0,
        -0.9876385927200317,
        -0.9999856948852539
      ],
      "type": "VEC3"
    },
    {
      "bufferView": 2,
      "byteOffset": 48408,
      "componentType": 5126,
      "count": 261,
      "max": [
        0.9871250987052917,
        0.9730862379074097
      ],
      "min": [
        0.018557731062173843,
        0.01842515356838703
      ],
      "type": "VEC2"
    },
    {
      "bufferView": 1,
      "byteOffset": 68520,
      "componentType": 5125,
      "count": 795,
      "type": "SCALAR"
    },
    {
      "bufferView": 5,
      "componentType": 5126,
      "count": 6,
      "max": [
        3.6212780475616455,
        3.6212780475616455,
        7.629888898463832e-08,
        0.0,
        3.6212780475616455,
        3.6212780475616455,
        1.1506431390831112e-17,
        0.0,
        0.0,
        9.280255852672781e-08,
        4.404571056365967,
        0.0,
        2.6669857501983643,
        0.027739835903048515,
        5.844673078847507e-10,
        1.0
      ],
      "min": [
        -0.06896421313285828,
        0.0,
        0.0,
        0.0,
        0.0,
        -8.262592101130044e-15,
        -1.7408952274409656e-22,
        0.0,
        -1.7673472685331149e-09,
        0.0,
        -4.404571056365967,
        0.0,
        -318.627685546875,
        -334.9145202636719,
        -8.328703948734528e-09,
        1.0
      ],
      "type": "MAT4"
    },
    {
      "bufferView": 0,
      "componentType": 5123,
      "count": 6000,
      "type": "VEC4"
    },
    {
      "bufferView": 4,
      "componentType": 5126,
      "count": 6000,
      "max": [
        1.0,
        0.0,
        0.0,
        0.0
      ],
      "min": [
        1.0,
        0.0,
        0.0,
        0.0
      ],
      "type": "VEC4"
    },
    {
      "bufferView": 0,
      "byteOffset": 48000,
      "componentType": 5123,
      "count": 9,
      "type": "VEC4"
    },
    {
      "bufferView": 4,
      "byteOffset": 96000,
      "componentType": 5126,
      "count": 9,
      "max": [
        1.0,
        0.0,
        0.0,
        0.0
      ],
      "min": [
        1.0,
        0.0,
        0.0,
        0.0
      ],
      "type": "VEC4"
    },
    {
      "bufferView": 0,
      "byteOffset": 48072,
      "componentType": 5123,
      "count": 42,
      "type": "VEC4"
    },
    {
      "bufferView": 4,
      "byteOffset": 96144,
      "componentType": 5126,
      "count": 42,
      "max": [
        1.0,
        0.0,
        0.0,
        0.0
      ],
      "min": [
        1.0,
        0.0,
        0.0,
        0.0
      ],
      "type": "VEC4"
    },
    {
      "bufferView": 6,
      "componentType": 5126,
      "count": 315,
      "max": [
        10.416666984558105
      ],
      "min": [
        0.0416666679084301
      ],
      "type": "SCALAR"
    },
    {
      "bufferView": 7,
      "componentType": 5126,
      "count": 315,
      "max": [
        -0.019602978602051735,
        -12.092073440551758,
        2.0465322321725885e-25
      ],
      "min": [
        -0.019602978602051735,
        -73.2315902709961,
        2.0465322321725885e-25
      ],
      "type": "VEC3"
    },
    {
      "bufferView": 6,
      "byteOffset": 1260,
      "componentType": 5126,
      "count": 315,
      "max": [
        10.416666984558105
      ],
      "min": [
        0.0416666679084301
      ],
      "type": "SCALAR"
    },
    {
      "bufferView": 8,
      "componentType": 5126,
      "count": 315,
      "max": [
        8.337310889110596e-17,
        0.9999849200248718,
        8.337310889110596e-17,
        1.0
      ],
      "min": [
        -8.65919002651213e-17,
        -0.864766538143158,
        -8.65919002651213e-17,
        -0.48968902230262756
      ],
      "type": "VEC4"
    },
    {
      "bufferView": 6,
      "byteOffset": 2520,
      "componentType": 5126,
      "count": 314,
      "max": [
        10.416666984558105
      ],
      "min": [
        0.0416666679084301
      ],
      "type": "SCALAR"
    },
    {
      "bufferView": 7,
      "byteOffset": 3780,
      "componentType": 5126,
      "count": 314,
      "max": [
        -0.019602978602051735,
        -28.378904342651367,
        1.0318338111183832e-24
      ],
      "min": [
        -0.019602978602051735,
        -81.630126953125,
        1.0318338111183832e-24
      ],
      "type": "VEC3"
    },
    {
      "bufferView": 6,
      "byteOffset": 3776,
      "componentType": 5126,
      "count": 314,
      "max": [
        10.416666984558105
      ],
      "min": [
        0.0416666679084301
      ],
      "type": "SCALAR"
    },
    {
      "bufferView": 8,
      "byteOffset": 5040,
      "componentType": 5126,
      "count": 314,
      "max": [
        0.7071067690849304,
        0.7071067690849304,
        0.707106351852417,
        0.707106351852417
      ],
      "min": [
        -0.4957784414291382,
        -0.4957784414291382,
        -0.49916505813598633,
        -0.49916505813598633
      ],
      "type": "VEC4"
    },
    {
      "bufferView": 6,
      "byteOffset": 5032,
      "componentType": 5126,
      "count": 315,
      "max": [
        10.416666984558105
      ],
      "min": [
        0.0416666679084301
      ],
      "type": "SCALAR"
    },
    {
      "bufferView": 7,
      "byteOffset": 7548,
      "componentType": 5126,
      "count": 315,
      "max": [
        0.40343159437179565,
        -29.589868545532227,
        -6.225273646838655e-25
      ],
      "min": [
        0.40343159437179565,
        -60.0638313293457,
        -6.225273646838655e-25
      ],
      "type": "VEC3"
    },
    {
      "bufferView": 6,
      "byteOffset": 6292,
      "componentType": 5126,
      "count": 315,
      "max": [
        10.416666984558105
      ],
      "min": [
        0.0416666679084301
      ],
      "type": "SCALAR"
    },
    {
      "bufferView": 8,
      "byteOffset": 10064,
      "componentType": 5126,
      "count": 315,
      "max": [
        0.7003905773162842,
        0.7138081789016724,
        0.7050601840019226,
        0.7091652154922485
      ],
      "min": [
        -0.4973496198654175,
        -0.49706313014030457,
        -0.5000795722007751,
        -0.4949027895927429
      ],
      "type": "VEC4"
    },
    {
      "bufferView": 6,
      "byteOffset": 7552,
      "componentType": 5126,
      "count": 312,
      "max": [
        10.416666984558105
      ],
      "min": [
        0.0416666679084301
      ],
      "type": "SCALAR"
    },
    {
      "bufferView": 7,
      "byteOffset": 11328,
      "componentType": 5126,
      "count": 312,
      "max": [
        -0.008136858232319355,
        347.006591796875,
        0.0
      ],
      "min": [
        -0.008136858232319355,
        166.9380645751953,
        0.0
      ],
      "type": "VEC3"
    },
    {
      "bufferView": 6,
      "byteOffset": 8800,
      "componentType": 5126,
      "count": 312,
      "max": [
        10.416666984558105
      ],
      "min": [
        0.0416666679084301
      ],
      "type": "SCALAR"
    },
    {
      "bufferView": 7,
      "byteOffset": 15072,
      "componentType": 5126,
      "count": 312,
      "max": [
        -2.6669857501983643,
        225.1842041015625,
        0.0
      ],
      "min": [
        -2.6669857501983643,
        209.09194946289063,
        0.0
      ],
      "type": "VEC3"
    }
  ],
  "animations": [
    {
      "channels": [
        {
          "sampler": 0,
          "target": {
            "node": 12,
            "path": "translation"
          }
        },
        {
          "sampler": 1,
          "target": {
            "node": 12,
            "path": "rotation"
          }
        },
        {
          "sampler": 2,
          "target": {
            "node": 13,
            "path": "translation"
          }
        },
        {
          "sampler": 3,
          "target": {
            "node": 13,
            "path": "rotation"
          }
        },
        {
          "sampler": 4,
          "target": {
            "node": 14,
            "path": "translation"
          }
        },
        {
          "sampler": 5,
          "target": {
            "node": 14,
            "path": "rotation"
          }
        },
        {
          "sampler": 6,
          "target": {
            "node": 11,
            "path": "translation"
          }
        },
        {
          "sampler": 7,
          "target": {
            "node": 15,
            "path": "translation"
          }
        }
      ],
      "name": "Take 001",
      "samplers": [
        {
          "input": 23,
          "interpolation": "LINEAR",
          "output": 24
        },
        {
          "input": 25,
          "interpolation": "LINEAR",
          "output": 26
        },
        {
          "input": 27,
          "interpolation": "LINEAR",
          "output": 28
        },
        {
          "input": 29,
          "interpolation": "LINEAR",
          "output": 30
        },
        {
          "input": 31,
          "interpolation": "LINEAR",
          "output": 32
        },
        {
          "input": 33,
          "interpolation": "LINEAR",
          "output": 34
        },
        {
          "input": 35,
          "interpolation": "LINEAR",
          "output": 36
        },
        {
          "input": 37,
          "interpolation": "LINEAR",
          "output": 38
        }
      ]
    }
  ],
  "asset": {
    "extras": {
      "author": "tim van wassenhove (https://sketchfab.com/tim.van.wassenhove)",
      "license": "CC-BY-4.0 (http://creativecommons.org/licenses/by/4.0/)",
      "source": "https://sketchfab.com/3d-models/blazefury-curse-of-sargeras-wow-legion-weapon-ba92b3add4674596bb3bbdcf5d742727",
      "title": "Blazefury Curse of Sargeras - WoW Legion Weapon"
    },
    "generator": "Sketchfab-13.2.0",
    "version": "2.0"
  },
  "bufferViews": [
    {
      "buffer": 0,
      "byteLength": 48408,
      "byteStride": 8,
      "name": "shortBufferViews",
      "target": 34962
    },
    {
      "buffer": 0,
      "byteLength": 71700,
      "byteOffset": 48408,
      "name": "floatBufferViews",
      "target": 34963
    },
    {
      "buffer": 0,
      "byteLength": 50496,
      "byteOffset": 120108,
      "byteStride": 8,
      "name": "floatBufferViews",
      "target": 34962
    },
    {
      "buffer": 0,
      "byteLength": 151488,
      "byteOffset": 170604,
      "byteStride": 12,
      "name": "floatBufferViews",
      "target": 34962
    },
    {
      "buffer": 0,
      "byteLength": 96816,
      "byteOffset": 322092,
      "byteStride": 16,
      "name": "floatBufferViews",
      "target": 34962
    },
    {
      "buffer": 0,
      "byteLength": 384,
      "byteOffset": 418908,
      "name": "floatBufferViews"
    },
    {
      "buffer": 0,
      "byteLength": 10048,
      "byteOffset": 419292,
      "name": "floatBufferViews"
    },
    {
      "buffer": 0,
      "byteLength": 18816,
      "byteOffset": 429340,
      "byteStride": 12,
      "name": "floatBufferViews"
    },
    {
      "buffer": 0,
      "byteLength": 15104,
      "byteOffset": 448156,
      "byteStride": 16,
      "name": "floatBufferViews"
    }
  ],
  "buffers": [
    {
      "byteLength": 463260,
      "uri": "scene.bin"
    }
  ],
  "images": [
    {
      "uri": "textures/material_baseColor.png"
    },
    {
      "uri": "textures/material_emissive.jpeg"
    },
    {
      "uri": "textures/Extras_baseColor.png"
    },
    {
      "uri": "textures/Extras_emissive.jpeg"
    }
  ],
  "materials": [
    {
      "alphaMode": "BLEND",
      "doubleSided": true,
      "emissiveFactor": [
        1.0,
        1.0,
        1.0
      ],
      "emissiveTexture": {
        "index": 1
      },
      "name": "material",
      "pbrMetallicRoughness": {
        "baseColorTexture": {
          "index": 0
        },
        "metallicFactor": 0.0,
        "roughnessFactor": 0.6
      }
    },
    {
      "alphaMode": "BLEND",
      "doubleSided": true,
      "emissiveFactor": [
        0.7443181818181819,
        0.7443181818181819,
        0.7443181818181819
      ],
      "emissiveTexture": {
        "index": 3
      },
      "name": "Extras",
      "pbrMetallicRoughness": {
        "baseColorTexture": {
          "index": 2
        },
        "metallicFactor": 0.0,
        "roughnessFactor": 0.6
      }
    }
  ],
  "meshes": [
    {
      "name": "Axe_Axe_0",
      "primitives": [
        {
          "attributes": {
            "JOINTS_0": 17,
            "NORMAL": 1,
            "POSITION": 0,
            "TEXCOORD_0": 2,
            "WEIGHTS_0": 18
          },
          "indices": 3,
          "material": 0,
          "mode": 4
        }
      ]
    },
    {
      "name": "Axe_Extras_0",
      "primitives": [
        {
          "attributes": {
            "JOINTS_0": 19,
            "NORMAL": 5,
            "POSITION": 4,
            "TEXCOORD_0": 6,
            "WEIGHTS_0": 20
          },
          "indices": 7,
          "material": 1,
          "mode": 4
        }
      ]
    },
    {
      "name": "Object001_Extras_0",
      "primitives": [
        {
          "attributes": {
            "JOINTS_0": 21,
            "NORMAL": 9,
            "POSITION": 8,
            "TEXCOORD_0": 10,
            "WEIGHTS_0": 22
          },
          "indices": 11,
          "material": 1,
          "mode": 4
        }
      ]
    },
    {
      "name": "Extra_Extras_0",
      "primitives": [
        {
          "attributes": {
            "NORMAL": 13,
            "POSITION": 12,
            "TEXCOORD_0": 14
          },
          "indices": 15,
          "material": 1,
          "mode": 4
        }
      ]
    }
  ],
  "nodes": [
    {
      "children": [
        1
      ],
      "matrix": [
        1.0,
        0.0,
        0.0,
        0.0,
        0.0,
        2.220446049250313e-16,
        -1.0,
        0.0,
        0.0,
        1.0,
        2.220446049250313e-16,
        0.0,
        0.0,
        0.0,
        0.0,
        1.0
      ],
      "name": "Sketchfab_model"
    },
    {
      "children": [
        2
      ],
      "matrix": [
        1.0,
        0.0,
        0.0,
        0.0,
        0.0,
        0.0,
        1.0,
        0.0,
        0.0,
        -1.0,
        0.0,
        0.0,
        0.0,
        0.0,
        0.0,
        1.0
      ],
      "name": "acb29b17ed6d45ef833e22931df91a3e.fbx"
    },
    {
      "children": [
        3
      ],
      "name": "Object_2"
    },
    {
      "children": [
        4
      ],
      "name": "RootNode"
    },
    {
      "children": [
        5,
        7,
        8,
        10,
        6,
        9,
        16,
        17,
        19
      ],
      "name": "Object_4"
    },
    {
      "children": [
        11,
        15
      ],
      "name": "_rootJoint"
    },
    {
      "matrix": [
        3.6212779999999998,
        0.0,
        0.0,
        0.0,
        0.0,
        3.6212779999999962,
        1.5829108955630694e-07,
        0.0,
        0.0,
        -1.925299063274668e-07,
        4.404570819999996,
        0.0,
        -0.15103729248046882,
        194.25597229003907,
        3.162277908325196,
        1.0
      ],
      "name": "Object_6"
    },
    {
      "mesh": 0,
      "name": "Object_7",
      "skin": 0
    },
    {
      "mesh": 1,
      "name": "Object_8",
      "skin": 0
    },
    {
      "matrix": [
        3.9161719999999995,
        0.0,
        0.0,
        0.0,
        0.0,
        2.397963752355244e-16,
        -3.9161719999999995,
        0.0,
        0.0,
        6.9409335400000005,
        4.250096021427754e-16,
        0.0,
        -7.736872711181641,
        -69.24231906890873,
        4.1203202056884765,
        1.0
      ],
      "name": "Object_9"
    },
    {
      "mesh": 2,
      "name": "Object_10",
      "skin": 0
    },
    {
      "children": [
        12,
        13,
        14
      ],
      "name": "synbol_all_jnt_00",
      "translation": [
        -0.008136858232319355,
        347.006591796875,
        0.0
      ]
    },
    {
      "name": "symbol_top_jnt_01",
      "translation": [
        -0.019602978602051735,
        -12.092073440551758,
        2.0465322321725885e-25
      ]
    },
    {
      "name": "symbol_mid_jnt_02",
      "rotation": [
        0.7071068286895752,
        0.7071068286895752,
        7.449230121636674e-09,
        7.449230121636674e-09
      ],
      "translation": [
        -0.019602978602051735,
        -28.378904342651367,
        1.0318338111183832e-24
      ]
    },
    {
      "name": "Synbol_bot_jnt_03",
      "rotation": [
        0.7003412842750549,
        0.7138081789016724,
        7.518463185363089e-09,
        7.37661842720172e-09
      ],
      "translation": [
        0.40343159437179565,
        -50.588218688964844,
        -6.225273646838655e-25
      ]
    },
    {
      "name": "Axe_jnt_04",
      "translation": [
        -2.6669857501983643,
        209.09194946289063,
        0.0
      ]
    },
    {
      "name": "Axe",
      "rotation": [
        2.1855694143368964e-08,
        0.0,
        0.0,
        1.0
      ],
      "scale": [
        3.6212780475616455,
        3.6212780475616455,
        4.404571056365967
      ],
      "translation": [
        -0.1510372906923294,
        194.25596618652344,
        3.162277936935425
      ]
    },
    {
      "children": [
        18
      ],
      "name": "Extra",
      "rotation": [
        -0.7071068286895752,
        -0.0,
        0.0,
        0.7071068286895752
      ],
      "scale": [
        3.9161720275878906,
        3.9161720275878906,
        6.940933704376221
      ],
      "translation": [
        -7.736872673034668,
        -69.24231719970703,
        4.1203203201293945
      ]
    },
    {
      "mesh": 3,
      "name": "Extra_Extras_0"
    },
    {
      "name": "Object001",
      "rotation": [
        -0.7071068286895752,
        -0.0,
        0.0,
        0.7071068286895752
      ],
      "scale": [
        3.9161720275878906,
        3.9161720275878906,
        6.940933704376221
      ],
      "translation": [
        -7.736872673034668,
        -69.24231719970703,
        4.1203203201293945
      ]
    }
  ],
  "samplers": [
    {
      "magFilter": 9729,
      "minFilter": 9987,
      "wrapS": 10497,
      "wrapT": 10497
    }
  ],
  "scene": 0,
  "scenes": [
    {
      "name": "Sketchfab_Scene",
      "nodes": [
        0
      ]
    }
  ],
  "skins": [
    {
      "inverseBindMatrices": 16,
      "joints": [
        5,
        11,
        12,
        13,
        14,
        15
      ],
      "skeleton": 5
    }
  ],
  "textures": [
    {
      "sampler": 0,
      "source": 0
    },
    {
      "sampler": 0,
      "source": 1
    },
    {
      "sampler": 0,
      "source": 2
    },
    {
      "sampler": 0,
      "source": 3
    }
  ]
}
