{
  "accessors": [
    {
      "bufferView": 2,
      "componentType": 5126,
      "count": 182,
      "max": [
        3.1975529193878174,
        3.1534109115600586,
        1.7150750160217285
      ],
      "min": [
        -3.1696579456329346,
        -3.2376890182495117,
        -0.23944200575351715
      ],
      "type": "VEC3"
    },
    {
      "bufferView": 2,
      "byteOffset": 2184,
      "componentType": 5126,
      "count": 182,
      "max": [
        0.8327912092208862,
        0.8346213102340698,
        1.0
      ],
      "min": [
        -0.8642942905426025,
        -0.8530922532081604,
        -1.0
      ],
      "type": "VEC3"
    },
    {
      "bufferView": 1,
      "componentType": 5126,
      "count": 182,
      "max": [
        0.9993450045585632,
        0.9970849752426147
      ],
      "min": [
        0.0004990000161342323,
        0.0004990100860595703
      ],
      "type": "VEC2"
    },
    {
      "bufferView": 0,
      "componentType": 5125,
      "count": 696,
      "type": "SCALAR"
    },
    {
      "bufferView": 2,
      "byteOffset": 4368,
      "componentType": 5126,
      "count": 621,
      "max": [
        3.143193006515503,
        2.728945016860962,
        8.362004280090332
      ],
      "min": [
        -3.6402809619903564,
        -0.7377189993858337,
        5.3980607986450195
      ],
      "type": "VEC3"
    },
    {
      "bufferView": 2,
      "byteOffset": 11820,
      "componentType": 5126,
      "count": 621,
      "max": [
        0.9978623986244202,
        0.9742050766944885,
        0.9964154362678528
      ],
      "min": [
        -0.99916011095047,
        -0.977000892162323,
        -0.9993270635604858
      ],
      "type": "VEC3"
    },
    {
      "bufferView": 1,
      "byteOffset": 1456,
      "componentType": 5126,
      "count": 621,
      "max": [
        0.9960939884185791,
        0.9955250024795532
      ],
      "min": [
        0.0,
        0.08886706829071045
      ],
      "type": "VEC2"
    },
    {
      "bufferView": 0,
      "byteOffset": 2784,
      "componentType": 5125,
      "count": 2160,
      "type": "SCALAR"
    },
    {
      "bufferView": 2,
      "byteOffset": 19272,
      "componentType": 5126,
      "count": 2294,
      "max": [
        2.3671720027923584,
        1.897426962852478,
        11.99206829071045
      ],
      "min": [
        -1.1435730457305908,
        -1.4715150594711304,
        1.394247055053711
      ],
      "type": "VEC3"
    },
    {
      "bufferView": 2,
      "byteOffset": 46800,
      "componentType": 5126,
      "count": 2294,
      "max": [
        0.9998130202293396,
        0.9982119202613831,
        0.9999850392341614
      ],
      "min": [
        -0.9999061822891235,
        -0.9997994899749756,
        -1.0
      ],
      "type": "VEC3"
    },
    {
      "bufferView": 1,
      "byteOffset": 6424,
      "componentType": 5126,
      "count": 2294,
      "max": [
        0.99310702085495,
        0.9960939884185791
      ],
      "min": [
        0.0039059999398887157,
        0.0039060115814208984
      ],
      "type": "VEC2"
    },
    {
      "bufferView": 0,
      "byteOffset": 11424,
      "componentType": 5125,
      "count": 7926,
      "type": "SCALAR"
    },
    {
      "bufferView": 2,
      "byteOffset": 74328,
      "componentType": 5126,
      "count": 2294,
      "max": [
        2.3671720027923584,
        1.897426962852478,
        11.99206829071045
      ],
      "min": [
        -1.1435730457305908,
        -1.4715150594711304,
        1.394247055053711
      ],
      "type": "VEC3"
    },
    {
      "bufferView": 2,
      "byteOffset": 101856,
      "componentType": 5126,
      "count": 2294,
      "max": [
        0.9998130202293396,
        0.9982119202613831,
        0.9999850392341614
      ],
      "min": [
        -0.9999061822891235,
        -0.9997994899749756,
        -1.0
      ],
      "type": "VEC3"
    },
    {
      "bufferView": 1,
      "byteOffset": 24776,
      "componentType": 5126,
      "count": 2294,
      "max": [
        0.99310702085495,
        0.9960939884185791
      ],
      "min": [
        0.0039059999398887157,
        0.0039060115814208984
      ],
      "type": "VEC2"
    },
    {
      "bufferView": 0,
      "byteOffset": 43128,
      "componentType": 5125,
      "count": 7926,
      "type": "SCALAR"
    },
    {
      "bufferView": 2,
      "byteOffset": 129384,
      "componentType": 5126,
      "count": 3177,
      "max": [
        2.6095681190490723,
        2.570077896118164,
        11.699040412902832
      ],
      "min": [
        -2.7301599979400635,
        -2.5486979484558105,
        1.3980070352554321
      ],
      "type": "VEC3"
    },
    {
      "bufferView": 2,
      "byteOffset": 167508,
      "componentType": 5126,
      "count": 3177,
      "max": [
        0.9999507069587708,
        0.9999799132347107,
        0.9984435439109802
      ],
      "min": [
        -0.9997631311416626,
        -0.9999732375144958,
        -0.9999186396598816
      ],
      "type": "VEC3"
    },
    {
      "bufferView": 1,
      "byteOffset": 43128,
      "componentType": 5126,
      "count": 3177,
      "max": [
        0.9973859786987305,
        0.9981619715690613
      ],
      "min": [
        0.005257999990135431,
        -0.22364187240600586
      ],
      "type": "VEC2"
    },
    {
      "bufferView": 0,
      "byteOffset": 74832,
      "componentType": 5125,
      "count": 10341,
      "type": "SCALAR"
    }
  ],
  "asset": {
    "extras": {
      "author": "Warcraft-3D-Models (https://sketchfab.com/Warcraft-3D-Models)",
      "license": "CC-BY-4.0 (http://creativecommons.org/licenses/by/4.0/)",
      "source": "https://sketchfab.com/3d-models/sylvanas-statue-world-of-warcraft-377cdc70823648c890a5a19151980ced",
      "title": "Sylvanas Statue World Of Warcraft"
    },
    "generator": "Sketchfab-12.67.0",
    "version": "2.0"
  },
  "bufferViews": [
    {
      "buffer": 0,
      "byteLength": 116196,
      "name": "floatBufferViews",
      "target": 34963
    },
    {
      "buffer": 0,
      "byteLength": 68544,
      "byteOffset": 116196,
      "byteStride": 8,
      "name": "floatBufferViews",
      "target": 34962
    },
    {
      "buffer": 0,
      "byteLength": 205632,
      "byteOffset": 184740,
      "byteStride": 12,
      "name": "floatBufferViews",
      "target": 34962
    }
  ],
  "buffers": [
    {
      "byteLength": 390372,
      "uri": "scene.bin"
    }
  ],
  "extensionsUsed": [
    "KHR_materials_clearcoat"
  ],
  "images": [
    {
      "uri": "textures/material_baseColor.png"
    },
    {
      "uri": "textures/Mat_1_baseColor.png"
    },
    {
      "uri": "textures/Mat_2_baseColor.png"
    },
    {
      "uri": "textures/Mat_3_baseColor.png"
    }
  ],
  "materials": [
    {
      "doubleSided": true,
      "name": "material",
      "pbrMetallicRoughness": {
        "baseColorTexture": {
          "index": 0
        },
        "metallicFactor": 0.0
      }
    },
    {
      "doubleSided": true,
      "extensions": {
        "KHR_materials_clearcoat": {
          "clearcoatFactor": 1.0,
          "clearcoatRoughnessFactor": 0.04
        }
      },
      "name": "Mat_1",
      "pbrMetallicRoughness": {
        "baseColorTexture": {
          "index": 1
        },
        "metallicFactor": 0.0
      }
    },
    {
      "doubleSided": true,
      "name": "Mat_2",
      "pbrMetallicRoughness": {
        "baseColorTexture": {
          "index": 2
        },
        "metallicFactor": 0.0
      }
    },
    {
      "doubleSided": true,
      "name": "Mat_3",
      "pbrMetallicRoughness": {
        "baseColorTexture": {
          "index": 3
        },
        "metallicFactor": 0.0
      }
    },
    {
      "doubleSided": true,
      "name": "worldexpansion03doodadsforsakenfk_sylvanasstatue.m2_Geoset_000_Lum",
      "pbrMetallicRoughness": {
        "baseColorTexture": {
          "index": 3
        },
        "metallicFactor": 0.0
      }
    }
  ],
  "meshes": [
    {
      "name": "Object_0",
      "primitives": [
        {
          "attributes": {
            "NORMAL": 1,
            "POSITION": 0,
            "TEXCOORD_0": 2
          },
          "indices": 3,
          "material": 1,
          "mode": 4
        }
      ]
    },
    {
      "name": "Object_1",
      "primitives": [
        {
          "attributes": {
            "NORMAL": 5,
            "POSITION": 4,
            "TEXCOORD_0": 6
          },
          "indices": 7,
          "material": 2,
          "mode": 4
        }
      ]
    },
    {
      "name": "Object_2",
      "primitives": [
        {
          "attributes": {
            "NORMAL": 9,
            "POSITION": 8,
            "TEXCOORD_0": 10
          },
          "indices": 11,
          "material": 3,
          "mode": 4
        }
      ]
    },
    {
      "name": "Object_3",
      "primitives": [
        {
          "attributes": {
            "NORMAL": 13,
            "POSITION": 12,
            "TEXCOORD_0": 14
          },
          "indices": 15,
          "material": 4,
          "mode": 4
        }
      ]
    },
    {
      "name": "Object_4",
      "primitives": [
        {
          "attributes": {
            "NORMAL": 17,
            "POSITION": 16,
            "TEXCOORD_0": 18
          },
          "indices": 19,
          "material": 0,
          "mode": 4
        }
      ]
    }
  ],
  "nodes": [
    {
      "children": [
        1
      ],
      "matrix": [
        1.0,
        0.0,
        0.0,
        0.0,
        0.0,
        2.220446049250313e-16,
        -1.0,
        0.0,
        0.0,
        1.0,
        2.220446049250313e-16,
        0.0,
        0.0,
        0.0,
        0.0,
        1.0
      ],
      "name": "Sketchfab_model"
    },
    {
      "children": [
        2,
        3,
        4,
        5,
        6
      ],
      "name": "Sylvanas Statue.obj.cleaner.materialmerger.gles"
    },
    {
      "mesh": 0,
      "name": "Object_2"
    },
    {
      "mesh": 1,
      "name": "Object_3"
    },
    {
      "mesh": 2,
      "name": "Object_4"
    },
    {
      "mesh": 3,
      "name": "Object_5"
    },
    {
      "mesh": 4,
      "name": "Object_6"
    }
  ],
  "samplers": [
    {
      "magFilter": 9729,
      "minFilter": 9987,
      "wrapS": 10497,
      "wrapT": 10497
    }
  ],
  "scene": 0,
  "scenes": [
    {
      "name": "Sketchfab_Scene",
      "nodes": [
        0
      ]
    }
  ],
  "textures": [
    {
      "sampler": 0,
      "source": 0
    },
    {
      "sampler": 0,
      "source": 1
    },
    {
      "sampler": 0,
      "source": 2
    },
    {
      "sampler": 0,
      "source": 3
    }
  ]
}
