{
  "accessors": [
    {
      "bufferView": 2,
      "componentType": 5126,
      "count": 1236,
      "max": [
        0.5455089807510376,
        0.4939979910850525,
        1.4786779880523682
      ],
      "min": [
        -0.8894389867782593,
        -0.5393750071525574,
        -0.0006500000017695129
      ],
      "type": "VEC3"
    },
    {
      "bufferView": 2,
      "byteOffset": 14832,
      "componentType": 5126,
      "count": 1236,
      "max": [
        0.9978874325752258,
        0.999801754951477,
        0.9974848031997681
      ],
      "min": [
        -0.999069094657898,
        -0.9994142055511475,
        -0.9996930360794067
      ],
      "type": "VEC3"
    },
    {
      "bufferView": 1,
      "componentType": 5126,
      "count": 1236,
      "max": [
        0.9960939884185791,
        0.9960939884185791
      ],
      "min": [
        0.0039059999398887157,
        0.0066710710525512695
      ],
      "type": "VEC2"
    },
    {
      "bufferView": 0,
      "componentType": 5125,
      "count": 4632,
      "type": "SCALAR"
    },
    {
      "bufferView": 2,
      "byteOffset": 29664,
      "componentType": 5126,
      "count": 456,
      "max": [
        -0.41855698823928833,
        0.5624430179595947,
        1.042749047279358
      ],
      "min": [
        -0.9614959955215454,
        -1.0330129861831665,
        0.37474700808525085
      ],
      "type": "VEC3"
    },
    {
      "bufferView": 2,
      "byteOffset": 35136,
      "componentType": 5126,
      "count": 456,
      "max": [
        1.0,
        1.0,
        1.0
      ],
      "min": [
        -1.0,
        -1.0,
        -1.0
      ],
      "type": "VEC3"
    },
    {
      "bufferView": 1,
      "byteOffset": 9888,
      "componentType": 5126,
      "count": 456,
      "max": [
        0.9980000257492065,
        0.9980000257492065
      ],
      "min": [
        0.0009800000116229057,
        0.001999974250793457
      ],
      "type": "VEC2"
    },
    {
      "bufferView": 0,
      "byteOffset": 18528,
      "componentType": 5125,
      "count": 1032,
      "type": "SCALAR"
    },
    {
      "bufferView": 2,
      "byteOffset": 40608,
      "componentType": 5126,
      "count": 1476,
      "max": [
        0.5868459939956665,
        0.7216789722442627,
        1.5779900550842285
      ],
      "min": [
        -0.6171799898147583,
        -0.4157170057296753,
        -0.2811940014362335
      ],
      "type": "VEC3"
    },
    {
      "bufferView": 2,
      "byteOffset": 58320,
      "componentType": 5126,
      "count": 1476,
      "max": [
        0.9942402839660645,
        0.9999527931213379,
        0.9998587965965271
      ],
      "min": [
        -0.9986109137535095,
        -0.9999352693557739,
        -0.9998587965965271
      ],
      "type": "VEC3"
    },
    {
      "bufferView": 1,
      "byteOffset": 13536,
      "componentType": 5126,
      "count": 1476,
      "max": [
        0.9827060103416443,
        0.9958509802818298
      ],
      "min": [
        0.007898000068962574,
        0.008421063423156738
      ],
      "type": "VEC2"
    },
    {
      "bufferView": 0,
      "byteOffset": 22656,
      "componentType": 5125,
      "count": 6678,
      "type": "SCALAR"
    }
  ],
  "asset": {
    "extras": {
      "author": "Warcraft-3D-Models (https://sketchfab.com/Warcraft-3D-Models)",
      "license": "CC-BY-4.0 (http://creativecommons.org/licenses/by/4.0/)",
      "source": "https://sketchfab.com/3d-models/arthas-world-of-warcraft-438349b5c7f64c1a84f543e2cde43a0d",
      "title": "Arthas World Of Warcraft"
    },
    "generator": "Sketchfab-12.67.0",
    "version": "2.0"
  },
  "bufferViews": [
    {
      "buffer": 0,
      "byteLength": 49368,
      "name": "floatBufferViews",
      "target": 34963
    },
    {
      "buffer": 0,
      "byteLength": 25344,
      "byteOffset": 49368,
      "byteStride": 8,
      "name": "floatBufferViews",
      "target": 34962
    },
    {
      "buffer": 0,
      "byteLength": 76032,
      "byteOffset": 74712,
      "byteStride": 12,
      "name": "floatBufferViews",
      "target": 34962
    }
  ],
  "buffers": [
    {
      "byteLength": 150744,
      "uri": "scene.bin"
    }
  ],
  "images": [
    {
      "uri": "textures/material_baseColor.png"
    },
    {
      "uri": "textures/creaturearthasarthas.m2_Geoset_000_baseColor.png"
    },
    {
      "uri": "textures/itemobjectcomponentsweaponhammer_2h_pvpalliance_a_01.m2_Geoset_000_baseColor.png"
    }
  ],
  "materials": [
    {
      "doubleSided": true,
      "name": "material",
      "pbrMetallicRoughness": {
        "baseColorTexture": {
          "index": 0
        },
        "metallicFactor": 0.0,
        "roughnessFactor": 0.7340852051527506
      }
    },
    {
      "doubleSided": true,
      "name": "creaturearthasarthas.m2_Geoset_000",
      "pbrMetallicRoughness": {
        "baseColorTexture": {
          "index": 1
        },
        "metallicFactor": 0.0
      }
    },
    {
      "doubleSided": true,
      "name": "itemobjectcomponentsweaponhammer_2h_pvpalliance_a_01.m2_Geoset_000",
      "pbrMetallicRoughness": {
        "baseColorTexture": {
          "index": 2
        },
        "metallicFactor": 0.0
      }
    }
  ],
  "meshes": [
    {
      "name": "Object_0",
      "primitives": [
        {
          "attributes": {
            "NORMAL": 1,
            "POSITION": 0,
            "TEXCOORD_0": 2
          },
          "indices": 3,
          "material": 0,
          "mode": 4
        }
      ]
    },
    {
      "name": "Object_1",
      "primitives": [
        {
          "attributes": {
            "NORMAL": 5,
            "POSITION": 4,
            "TEXCOORD_0": 6
          },
          "indices": 7,
          "material": 2,
          "mode": 4
        }
      ]
    },
    {
      "name": "Object_2",
      "primitives": [
        {
          "attributes": {
            "NORMAL": 9,
            "POSITION": 8,
            "TEXCOORD_0": 10
          },
          "indices": 11,
          "material": 1,
          "mode": 4
        }
      ]
    }
  ],
  "nodes": [
    {
      "children": [
        1
      ],
      "matrix": [
        1.0,
        0.0,
        0.0,
        0.0,
        0.0,
        2.220446049250313e-16,
        -1.0,
        0.0,
        0.0,
        1.0,
        2.220446049250313e-16,
        0.0,
        0.0,
        0.0,
        0.0,
        1.0
      ],
      "name": "Sketchfab_model"
    },
    {
      "children": [
        2,
        3,
        4
      ],
      "name": "Arthas.obj.cleaner.materialmerger.gles"
    },
    {
      "mesh": 0,
      "name": "Object_2"
    },
    {
      "mesh": 1,
      "name": "Object_3"
    },
    {
      "mesh": 2,
      "name": "Object_4"
    }
  ],
  "samplers": [
    {
      "magFilter": 9729,
      "minFilter": 9987,
      "wrapS": 10497,
      "wrapT": 10497
    }
  ],
  "scene": 0,
  "scenes": [
    {
      "name": "Sketchfab_Scene",
      "nodes": [
        0
      ]
    }
  ],
  "textures": [
    {
      "sampler": 0,
      "source": 0
    },
    {
      "sampler": 0,
      "source": 1
    },
    {
      "sampler": 0,
      "source": 2
    }
  ]
}
