{
  "accessors": [
    {
      "bufferView": 2,
      "componentType": 5126,
      "count": 6540,
      "max": [
        329.45770263671875,
        869.2656860351563,
        -248.8144989013672
      ],
      "min": [
        -161.76210021972656,
        -221.86489868164063,
        -1182.531494140625
      ],
      "type": "VEC3"
    },
    {
      "bufferView": 2,
      "byteOffset": 78480,
      "componentType": 5126,
      "count": 6540,
      "max": [
        0.998801052570343,
        0.9985159039497375,
        1.0
      ],
      "min": [
        -0.9991657137870789,
        -0.9996119141578674,
        -1.0
      ],
      "type": "VEC3"
    },
    {
      "bufferView": 1,
      "componentType": 5126,
      "count": 6540,
      "max": [
        0.9956719279289246,
        0.9890899658203125
      ],
      "min": [
        0.0016034299042075872,
        0.00438920920714736
      ],
      "type": "VEC2"
    },
    {
      "bufferView": 0,
      "componentType": 5125,
      "count": 16830,
      "type": "SCALAR"
    }
  ],
  "asset": {
    "extras": {
      "author": "Roeland Van Sichem De Combe (https://sketchfab.com/Roeland)",
      "license": "CC-BY-4.0 (http://creativecommons.org/licenses/by/4.0/)",
      "source": "https://sketchfab.com/3d-models/dragon-flail-a1ddde08ead04e3aa271f0a9c8bc0088",
      "title": "Dragon Flail"
    },
    "generator": "Sketchfab-12.66.0",
    "version": "2.0"
  },
  "bufferViews": [
    {
      "buffer": 0,
      "byteLength": 67320,
      "name": "floatBufferViews",
      "target": 34963
    },
    {
      "buffer": 0,
      "byteLength": 52320,
      "byteOffset": 67320,
      "byteStride": 8,
      "name": "floatBufferViews",
      "target": 34962
    },
    {
      "buffer": 0,
      "byteLength": 156960,
      "byteOffset": 119640,
      "byteStride": 12,
      "name": "floatBufferViews",
      "target": 34962
    }
  ],
  "buffers": [
    {
      "byteLength": 276600,
      "uri": "scene.bin"
    }
  ],
  "extensionsUsed": [
    "KHR_materials_unlit"
  ],
  "images": [
    {
      "uri": "textures/Material_59_baseColor.jpeg"
    },
    {
      "uri": "textures/Material_59_emissive.jpeg"
    }
  ],
  "materials": [
    {
      "doubleSided": true,
      "emissiveFactor": [
        1.0,
        1.0,
        1.0
      ],
      "emissiveTexture": {
        "index": 1
      },
      "extensions": {
        "KHR_materials_unlit": {}
      },
      "name": "Material_59",
      "pbrMetallicRoughness": {
        "baseColorTexture": {
          "index": 0
        },
        "metallicFactor": 0.0
      }
    }
  ],
  "meshes": [
    {
      "name": "Dragon_Flail_Material #59_0",
      "primitives": [
        {
          "attributes": {
            "NORMAL": 1,
            "POSITION": 0,
            "TEXCOORD_0": 2
          },
          "indices": 3,
          "material": 0,
          "mode": 4
        }
      ]
    }
  ],
  "nodes": [
    {
      "children": [
        1
      ],
      "matrix": [
        1.0,
        0.0,
        0.0,
        0.0,
        0.0,
        2.220446049250313e-16,
        -1.0,
        0.0,
        0.0,
        1.0,
        2.220446049250313e-16,
        0.0,
        0.0,
        0.0,
        0.0,
        1.0
      ],
      "name": "Sketchfab_model"
    },
    {
      "children": [
        2
      ],
      "matrix": [
        1.0,
        0.0,
        0.0,
        0.0,
        0.0,
        0.0,
        1.0,
        0.0,
        0.0,
        -1.0,
        0.0,
        0.0,
        0.0,
        0.0,
        0.0,
        1.0
      ],
      "name": "bfbb8fd1d48b489babe3ae99e7fcec4d.fbx"
    },
    {
      "children": [
        3
      ],
      "name": "RootNode"
    },
    {
      "children": [
        4
      ],
      "matrix": [
        0.2398039980787135,
        -0.11453584505973104,
        -0.0775475720410271,
        0.0,
        -0.07807023073341406,
        0.01604245224681674,
        -0.2651145451058481,
        0.0,
        0.11418022948933187,
        0.2515198265542948,
        -0.018403675486206948,
        0.0,
        7.3706817626953125,
        55.07655334472656,
        67.63430786132813,
        1.0
      ],
      "name": "Dragon_Flail"
    },
    {
      "children": [
        5
      ],
      "matrix": [
        1.0,
        0.0,
        -0.0,
        0.0,
        0.0,
        1.0,
        0.0,
        0.0,
        0.0,
        0.0,
        1.0,
        0.0,
        -21.631820678710938,
        38.470947265625,
        768.8154907226563,
        1.0
      ],
      "name": "Object_4"
    },
    {
      "mesh": 0,
      "name": "Dragon_Flail_Material #59_0"
    }
  ],
  "samplers": [
    {
      "magFilter": 9729,
      "minFilter": 9987,
      "wrapS": 10497,
      "wrapT": 10497
    }
  ],
  "scene": 0,
  "scenes": [
    {
      "name": "Sketchfab_Scene",
      "nodes": [
        0
      ]
    }
  ],
  "textures": [
    {
      "sampler": 0,
      "source": 0
    },
    {
      "sampler": 0,
      "source": 1
    }
  ]
}
